<svg width="53.87" height="43.61" viewBox="0 0 353 393" fill="none" xmlns="http://www.w3.org/2000/svg">
<path d="M14 80V77.5H12L10.5 81L8 86L6 92L5 96.5L3.5 100.5L2.5 104.5L1.5 109.5L0.5 115.5L0 120L0.5 141V146L1.5 152.5L2.5 159.5L4 166.5L6.5 172.5L8 176L10 182L13 188.5L15 193L17.5 196.5L20 199.5L22 203L25.5 207.5L28 211L32 215.5L36 219.5L42 224L46.5 228L50.5 230.5L55 233.5L57.5 234.5L62 236.5L66 238.5L73 241L79 242.5L87 243.5H108H112L116 242.5L120 242L123 241L128.5 239.5L132.5 238.5L138 236.5L142.5 234.5L149 231.5L153 229.5L159.5 226.5L164 224L169 222.5L176 219.5L184.5 216.5L188.5 215.5L195.5 214.5L199 214H206.5L215 214.5L214 211.5L213.5 209L211.5 205.5L209.5 203L207 199L204.5 196.5L202 193.5L199 190.5L196 187.5L192.5 184.5L188.5 181L184.5 178.5L181 176L176 173.5L171 170.5L165.5 168.5L159.5 166.5L156.5 165.5L149 163.5L144 163L138.5 162L131 160.5L125 159.5H124L120 159H117.5L113.5 158.5L111 158H108L105 157.5L100.5 156.5L96.5 155.5L92 154.5L88.5 153.5L82.5 151.5L77.5 149.5L73 147.5L68.5 145.5L63.5 143L58.5 139.5L54.5 136.5L51 133.5L48 131L45 128.5L41 124.5L37 120.5L33 116.5L29.5 111.5L27.5 107.5L25.5 104.5L23 100.5L19.5 92.5L17.5 87.5L15 82.5L14 80Z" fill="#610E0E"/>
<path d="M344 124H353V121L348 120L342.5 118L338 116L334 113.5L330 111L326 108L323 106L320 104L317.5 101L313 98L310 96L306.5 94L302 91.5L298 90L294.5 89L289 87.5L280 86.5L270.5 87L265.5 88L261 90L254.5 92.5L247.5 96.5L242.5 100.5L236.5 107.5L233.5 111.5L230.5 116.5L226.5 126.5L224.5 134.5L223.5 142V163.5L224 168L226 176L228.5 183.5L230.5 191L231 195L232.5 200L233.5 206L234 210L233.5 234.5L232.5 239.188L231.5 243.5L228.5 254L225.5 261.5L222.5 267.5L219.5 272.5L213.5 282.5L206 292L199.5 300L187 312L168 326.5L153 335.5L137.5 343.5L123 349.5L112.5 353L101 356.5L92.5 358.5L87 359.5L79.5 360.5L74 361L69.5 361.5L62 362.5H54.5H34.5L29.5 362L26.5 361.5L17.5 360.5L13.5 359.5L9.5 358.5L5 357.5L4 358.5L5.5 359.5L9.5 362.5L13.5 365.5L17.5 367.688L22.5 370.5L26.5 372.5L31 374.5L35.5 376.5L45 380.5L53.5 383.5L60.5 385.5L68.5 387.5L72.5 388.5L77.5 389L84.5 390.5L91.5 391.5L98.5 392.5L104.5 393L130.5 392.5H137.5L145.5 391.5L163.5 388.5L171 386.5L178.5 384.5L185 382.5L194 379.5L203.5 375.5L213.5 370.5L220.5 366.5L227 362.5L234.5 357.5L240.5 353.5L245.5 349L249.5 345.5L255.5 340.5L260.5 335.5L264.5 331.5L268.5 326.5L271.5 322.5L275.5 316.5L279 311.5L282 305.5L285.5 300L288.5 293L291.5 286L294.5 278L296.5 270.5L298.5 263.5L299.5 258L300.5 250.5V221L299.5 214L298.5 207.5L296.5 195L295.5 191V177.5V171L296.5 165L298.5 158.5L301.5 152L303.5 148L307.5 143L310.5 139.5L314.5 136.5L319 133.5L324.5 130.5L329.5 128L334.5 126L339.5 125L344 124Z" fill="#610E0E"/>
<path d="M30.5 248.5L27.5 245.5V248L29.5 252.5L32 258L35 263L37.5 267L40 270.5L44 275.5L48.5 280L52.5 283.5L56 287L62.5 291.5L67 294.5L71.5 296.5L78 299.5L84 301.5L89 303.5L94.5 304.5L100.5 305H123L127 304.5L131.5 303.5L135.5 302.5L141.5 300.5L146.5 298.5L151 296.5L155 294.5L160.5 291.5L165 288.5L169.5 285.5L172.5 283.5L175 280.5L178.5 277.5L181.5 274.5L184.5 271L187.5 267.5L190.5 263L193.5 258.5L196.5 253.5L198.5 250L200.5 246L201.5 243.5L202.5 239.5H201L199 240L197 240.5L193.5 241.5L190.5 242.5L187 243.5L182.5 245.5L179.5 246.5L175.5 248.5L171 250.5L165.5 253.5L160 256.5L154 259.5L147.5 262.5L142.5 264.5L137.5 266.5L131 268.5L124 270.5L119 271.5L111.5 272.5L87.5 272L81 271.5L76 270.5L71.5 269.5L67.5 268.5L64.5 267.5L61 266.5L55.5 264L49.5 261.5L45 258.5L41 256.5L37.5 253.5L34.5 251.5L30.5 248.5Z" fill="#610E0E"/>
<path d="M214.5 15L213 15.5L210.5 17.5L208.5 20.5L207.5 22.5L208 28.5L209.5 31L213.5 34.5L219.5 35.5L221.5 38.5L223.5 45L224.5 51.5L225.5 57.5V60.5H224.5L223 59.5L220.5 58.5L217 57.5L214 56.5L209.5 55.5L205.5 54.5H203L201 53.5H198L197 53H189.5V44.5L188.5 43L187 41L185 39.5L182.5 38.5H180H176.5L174.5 39L172.5 40.5L171 42.5L170 45V52.5L171.5 54.5L173.5 56.5L176.5 58L187 58.5L189 59.5L192 61.5L195.5 63.5L199.5 66.5L202.5 68.5L205.5 71.5L208 73.5L210.5 76L212.5 78L215.5 81L217.5 84.5L219.5 86.5H221L224.5 83.5L227.5 80.5L232.5 76.5L237 73.5L241 71.5L245 69.5L252.5 66.5L259.5 64L267.5 62.5L295.5 62L296.5 47.5L297.5 43.5L298.5 40L299.5 36L300 31.5L301.5 28.5L302.5 26L303.5 23.5L304.5 20.5H308L310.5 19.5L312.5 18.5L314.5 16.5L315.5 14V6.5L314.5 5L314 4L313 2.5L311.5 1.5L309 0H303.5L302.5 0.5L300.5 1.5L298.5 3.5L297.5 4.5L296.5 7V13.5L297.5 15.5L299 17.5V18.5L297 19.5L295 21.5L292.5 23.5L290.5 25.5L288.5 28L287 29.5L284.5 31.5L283 33.5L280.5 35.5L278.5 38L276.5 40.5L274.5 42.5L273.5 44.5L272.5 45.5L271.5 44.5L270.5 42.5L269.5 38.5L268.5 35.5L267.5 32.5L266.5 29.5L265.5 26.5L264.5 23.5V21.5L265.5 20.5L267.5 18.5L269 16L268.5 7.5L267.5 5.5L266.5 4.5L265.5 3.5L262.5 2H261H257.5L255.5 2.5L253.5 3.5L251.5 5.5L250 7.5V16L251.5 18L253.5 20.5L255.5 21.5L257 22V23.5L255.5 26.5L254.5 28.5L253.5 31.5L252.5 34.5L251.5 37.5L250.5 40L249.5 43L248.5 45.5V47L247.5 47.5L246.5 46.5L244.5 45L242 43L239.5 40.5L236.5 38.5L233.5 36.5L231.5 35.5L228.5 33.5L226.5 32.5V30.5L228 28.5L227.5 21.5L226.5 19.5L225.5 17.5L223.5 16.5L220.5 15H214.5Z" fill="#610E0E"/>
</svg>
